<svg xmlns="http://www.w3.org/2000/svg" viewBox="0 0 320 200" role="img">

  <defs>
    <pattern id="tone" width="4" height="4" patternUnits="userSpaceOnUse">
      <circle cx="1" cy="1" r="0.7" fill="#111"/>
    </pattern>
    <pattern id="tone-dense" width="3" height="3" patternUnits="userSpaceOnUse">
      <circle cx="0.8" cy="0.8" r="0.65" fill="#111"/>
    </pattern>
    <pattern id="hatch" width="6" height="6" patternUnits="userSpaceOnUse" patternTransform="rotate(35)">
      <line x1="0" y1="0" x2="0" y2="6" stroke="#111" stroke-width="1"/>
    </pattern>
  </defs>
  <rect x="6" y="6" width="308" height="188" fill="#fff" stroke="#111" stroke-width="4"/>
  <rect x="10" y="10" width="300" height="180" fill="#f7f7f5" stroke="#111" stroke-width="1.5"/>
  <rect x="12" y="12" width="296" height="100" fill="#fff"/>
  <rect x="12" y="12" width="296" height="100" fill="url(#tone)" opacity="0.16"/>
  <rect x="12" y="112" width="296" height="76" fill="#fff"/>
  <rect x="12" y="112" width="296" height="76" fill="url(#tone)" opacity="0.26"/>
  <path d="M12 112 Q90 104 160 112 T308 112" fill="none" stroke="#111" stroke-width="2"/>
<g transform="translate(55,95)">
    <path d="M10 28 h28 l4 34 h-36z" fill="#fff" stroke="#111" stroke-width="2"/>
    <rect x="10" y="28" width="28" height="14" fill="url(#tone-dense)" opacity="0.35"/>
    <path d="M12 62 v20 M32 62 v20" stroke="#111" stroke-width="3" stroke-linecap="round"/>
    <circle cx="24" cy="16" r="14" fill="#fff" stroke="#111" stroke-width="2.2"/>
    <!-- soft hair cap — solid, no crown bumps -->
    <path d="M10 16 Q11 6 24 5 Q37 6 38 16 Q30 10 24 11 Q18 10 10 16 Z" fill="#111"/>
    <ellipse cx="19" cy="16" rx="3.2" ry="4" fill="#111"/><ellipse cx="29" cy="16" rx="3.2" ry="4" fill="#111"/><circle cx="20" cy="14.5" r="1" fill="#fff"/><circle cx="30" cy="14.5" r="1" fill="#fff"/>
    <path d="M18 25 Q24 21 30 25" fill="none" stroke="#111" stroke-width="1.6"/>
  </g><g transform="translate(200,88)">
    <path d="M8 30 h28 l2 36 h-32z" fill="#fff" stroke="#111" stroke-width="2"/>
    <path d="M8 42 q16 10 32 0" fill="url(#tone)" opacity="0.25"/>
    <circle cx="22" cy="16" r="13" fill="#fff" stroke="#111" stroke-width="2"/>
    <path d="M10 12 Q12 2 22 1 Q32 2 34 12" fill="none" stroke="#111" stroke-width="2.2"/>
    <path d="M10 14 Q14 8 22 7 Q30 8 34 14" fill="#fff" stroke="#111" stroke-width="1.4"/>
    <circle cx="6" cy="20" r="5" fill="#fff" stroke="#111" stroke-width="1.8"/>
    <circle cx="38" cy="20" r="5" fill="#fff" stroke="#111" stroke-width="1.8"/>
    <path d="M9 18 v10 M35 18 v10" stroke="#111" stroke-width="1.5"/>
    <path d="M12 10 L14 16 M18 8 L19 15 M26 8 L25 15 M32 10 L30 16" fill="none" stroke="#111" stroke-width="1.4"/>
    <ellipse cx="17" cy="16" rx="2.4" ry="3.2" fill="#111"/>
    <ellipse cx="27" cy="16" rx="2.4" ry="3.2" fill="#111"/>
    <circle cx="17.7" cy="14.8" r="0.7" fill="#fff"/>
    <circle cx="27.7" cy="14.8" r="0.7" fill="#fff"/>
    <path d="M17 23 Q22 26 27 23" fill="none" stroke="#111" stroke-width="1.4"/>
  </g>
      <g stroke="#111" stroke-width="3" fill="none" stroke-linecap="round">
        <path d="M130 100 H175"/><path d="M175 90 L185 110 M175 110 L185 90"/>
      </g>
      <g transform="translate(125,155)">
    <rect x="0" y="0" width="53" height="16" rx="3" fill="#111"/>
    <text x="6" y="12" font-family="Segoe UI, Arial, sans-serif" font-size="9" font-weight="700" fill="#fff">ССОРА</text>
  </g>
<g transform="translate(120,24)">
    <rect x="0" y="0" width="40" height="22" fill="#fff" stroke="#111" stroke-width="2.5"/>
    <rect x="2" y="2" width="36" height="18" fill="none" stroke="#111" stroke-width="1"/>
    <text x="7" y="16" font-family="Arial Black, Impact, sans-serif" font-size="11" font-weight="900" fill="#111">ОЙ</text>
  </g>
<g transform="translate(175,36)">
    <ellipse cx="28.5" cy="16" rx="28.5" ry="15" fill="#fff" stroke="#111" stroke-width="2"/>
    <path d="M20 30 L16 42 L27 32" fill="#fff" stroke="#111" stroke-width="2"/>
    <text x="10" y="20" font-family="Segoe UI, Arial, sans-serif" font-size="10" font-weight="700" fill="#111">Ой...</text>
  </g>
</svg>
