<svg xmlns="http://www.w3.org/2000/svg" viewBox="0 0 320 200" role="img">

  <defs>
    <pattern id="tone" width="4" height="4" patternUnits="userSpaceOnUse">
      <circle cx="1" cy="1" r="0.7" fill="#111"/>
    </pattern>
    <pattern id="tone-dense" width="3" height="3" patternUnits="userSpaceOnUse">
      <circle cx="0.8" cy="0.8" r="0.65" fill="#111"/>
    </pattern>
    <pattern id="hatch" width="6" height="6" patternUnits="userSpaceOnUse" patternTransform="rotate(35)">
      <line x1="0" y1="0" x2="0" y2="6" stroke="#111" stroke-width="1"/>
    </pattern>
  </defs>
  <rect x="6" y="6" width="308" height="188" fill="#fff" stroke="#111" stroke-width="4"/>
  <rect x="10" y="10" width="300" height="180" fill="#f7f7f5" stroke="#111" stroke-width="1.5"/>
  <rect x="12" y="12" width="296" height="100" fill="#fff"/>
  <rect x="12" y="12" width="296" height="100" fill="url(#tone)" opacity="0.16"/>
  <rect x="12" y="112" width="296" height="76" fill="#fff"/>
  <rect x="12" y="112" width="296" height="76" fill="url(#tone)" opacity="0.26"/>
  <path d="M12 112 Q90 104 160 112 T308 112" fill="none" stroke="#111" stroke-width="2"/>
<g transform="translate(25,105)">
    <path d="M10 28 h28 l4 34 h-36z" fill="#fff" stroke="#111" stroke-width="2"/>
    <rect x="10" y="28" width="28" height="14" fill="url(#tone-dense)" opacity="0.35"/>
    <path d="M12 62 v20 M32 62 v20" stroke="#111" stroke-width="3" stroke-linecap="round"/>
    <circle cx="24" cy="16" r="14" fill="#fff" stroke="#111" stroke-width="2.2"/>
    <!-- soft hair cap — solid, no crown bumps -->
    <path d="M10 16 Q11 6 24 5 Q37 6 38 16 Q30 10 24 11 Q18 10 10 16 Z" fill="#111"/>
    <circle cx="19" cy="16" r="3.4" fill="#111"/><circle cx="29" cy="16" r="3.4" fill="#111"/><circle cx="20" cy="14.8" r="1" fill="#fff"/><circle cx="30" cy="14.8" r="1" fill="#fff"/>
    <ellipse cx="24" cy="24" rx="3" ry="4" fill="#111"/>
  </g><g transform="translate(80,108)">
    <path d="M10 28 h28 l4 34 h-36z" fill="#fff" stroke="#111" stroke-width="2"/>
    <rect x="10" y="28" width="28" height="14" fill="url(#tone-dense)" opacity="0.35"/>
    <path d="M12 62 v20 M32 62 v20" stroke="#111" stroke-width="3" stroke-linecap="round"/>
    <circle cx="24" cy="16" r="14" fill="#fff" stroke="#111" stroke-width="2.2"/>
    <!-- soft hair cap — solid, no crown bumps -->
    <path d="M10 16 Q11 6 24 5 Q37 6 38 16 Q30 10 24 11 Q18 10 10 16 Z" fill="#111"/>
    <circle cx="19" cy="16" r="3.4" fill="#111"/><circle cx="29" cy="16" r="3.4" fill="#111"/><circle cx="20" cy="14.8" r="1" fill="#fff"/><circle cx="30" cy="14.8" r="1" fill="#fff"/>
    <ellipse cx="24" cy="24" rx="3" ry="4" fill="#111"/>
  </g>
      <g transform="translate(200,55)" fill="#fff" stroke="#111" stroke-width="2">
        <path d="M10 35 h26 l4 55 H6 Z"/>
        <circle cx="23" cy="22" r="14"/>
        <circle cx="18" cy="20" r="2.5" fill="#111"/><circle cx="28" cy="20" r="2.5" fill="#111"/>
        <path d="M18 28 Q23 31 28 28" fill="none"/>
        <g transform="translate(-10,55)">
          <rect x="0" y="0" width="55" height="32" rx="2"/>
          <path d="M8 -8 h40 l5 8 H3 Z"/>
          <rect x="22" y="10" width="12" height="10" rx="1"/>
          <circle cx="28" cy="15" r="2" fill="#111"/>
        </g>
      </g>
      <g stroke="#111" stroke-width="1.6" fill="none" opacity="0.7">
        <path d="M160 90 h30 M165 100 h28 M170 110 h24"/>
      </g>
      <g transform="translate(145,155)">
    <rect x="0" y="0" width="61" height="16" rx="3" fill="#111"/>
    <text x="6" y="12" font-family="Segoe UI, Arial, sans-serif" font-size="9" font-weight="700" fill="#fff">СУНДУК</text>
  </g><g transform="translate(230,155)">
    <rect x="0" y="0" width="40" height="16" rx="3" fill="#111"/>
    <text x="6" y="12" font-family="Segoe UI, Arial, sans-serif" font-size="9" font-weight="700" fill="#fff">ДЖО</text>
  </g>
<g transform="translate(110,24)">
    <rect x="0" y="0" width="56" height="22" fill="#fff" stroke="#111" stroke-width="2.5"/>
    <rect x="2" y="2" width="52" height="18" fill="none" stroke="#111" stroke-width="1"/>
    <text x="7" y="16" font-family="Arial Black, Impact, sans-serif" font-size="11" font-weight="900" fill="#111">НЕТ!</text>
  </g>
<g transform="translate(20,28)">
    <ellipse cx="36.5" cy="16" rx="36.5" ry="15" fill="#fff" stroke="#111" stroke-width="2"/>
    <path d="M26 30 L20 42 L35 32" fill="#fff" stroke="#111" stroke-width="2"/>
    <text x="10" y="20" font-family="Segoe UI, Arial, sans-serif" font-size="10" font-weight="700" fill="#111">Уносит!</text>
  </g>
</svg>
