<svg xmlns="http://www.w3.org/2000/svg" viewBox="0 0 320 200" role="img">

  <defs>
    <pattern id="tone" width="4" height="4" patternUnits="userSpaceOnUse">
      <circle cx="1" cy="1" r="0.7" fill="#111"/>
    </pattern>
    <pattern id="tone-dense" width="3" height="3" patternUnits="userSpaceOnUse">
      <circle cx="0.8" cy="0.8" r="0.65" fill="#111"/>
    </pattern>
    <pattern id="hatch" width="6" height="6" patternUnits="userSpaceOnUse" patternTransform="rotate(35)">
      <line x1="0" y1="0" x2="0" y2="6" stroke="#111" stroke-width="1"/>
    </pattern>
  </defs>
  <rect x="6" y="6" width="308" height="188" fill="#fff" stroke="#111" stroke-width="4"/>
  <rect x="10" y="10" width="300" height="180" fill="#f7f7f5" stroke="#111" stroke-width="1.5"/>
  <rect x="12" y="12" width="296" height="100" fill="#fff"/>
  <rect x="12" y="12" width="296" height="100" fill="url(#tone)" opacity="0.16"/>
  <rect x="12" y="112" width="296" height="76" fill="#fff"/>
  <rect x="12" y="112" width="296" height="76" fill="url(#tone)" opacity="0.26"/>
  <path d="M12 112 Q90 104 160 112 T308 112" fill="none" stroke="#111" stroke-width="2"/>
<g transform="translate(80,105)">
    <path d="M10 28 h28 l4 34 h-36z" fill="#fff" stroke="#111" stroke-width="2"/>
    <rect x="10" y="28" width="28" height="14" fill="url(#tone-dense)" opacity="0.35"/>
    <path d="M12 62 v20 M32 62 v20" stroke="#111" stroke-width="3" stroke-linecap="round"/>
    <circle cx="24" cy="16" r="14" fill="#fff" stroke="#111" stroke-width="2.2"/>
    <!-- soft hair cap — solid, no crown bumps -->
    <path d="M10 16 Q11 6 24 5 Q37 6 38 16 Q30 10 24 11 Q18 10 10 16 Z" fill="#111"/>
    <circle cx="19" cy="16" r="3.4" fill="#111"/><circle cx="29" cy="16" r="3.4" fill="#111"/><circle cx="20" cy="14.8" r="1" fill="#fff"/><circle cx="30" cy="14.8" r="1" fill="#fff"/>
    <ellipse cx="24" cy="24" rx="3" ry="4" fill="#111"/>
  </g><g transform="translate(145,105)">
    <path d="M8 30 h28 l2 36 h-32z" fill="#fff" stroke="#111" stroke-width="2"/>
    <path d="M8 42 q16 10 32 0" fill="url(#tone)" opacity="0.25"/>
    <circle cx="22" cy="16" r="13" fill="#fff" stroke="#111" stroke-width="2"/>
    <path d="M10 12 Q12 2 22 1 Q32 2 34 12" fill="none" stroke="#111" stroke-width="2.2"/>
    <path d="M10 14 Q14 8 22 7 Q30 8 34 14" fill="#fff" stroke="#111" stroke-width="1.4"/>
    <circle cx="6" cy="20" r="5" fill="#fff" stroke="#111" stroke-width="1.8"/>
    <circle cx="38" cy="20" r="5" fill="#fff" stroke="#111" stroke-width="1.8"/>
    <path d="M9 18 v10 M35 18 v10" stroke="#111" stroke-width="1.5"/>
    <path d="M12 10 L14 16 M18 8 L19 15 M26 8 L25 15 M32 10 L30 16" fill="none" stroke="#111" stroke-width="1.4"/>
    <ellipse cx="17" cy="16" rx="2.4" ry="3.2" fill="#111"/>
    <ellipse cx="27" cy="16" rx="2.4" ry="3.2" fill="#111"/>
    <circle cx="17.7" cy="14.8" r="0.7" fill="#fff"/>
    <circle cx="27.7" cy="14.8" r="0.7" fill="#fff"/>
    <path d="M17 23 Q22 26 27 23" fill="none" stroke="#111" stroke-width="1.4"/>
  </g>
      <g fill="#fff" stroke="#111" stroke-width="2.5">
        <path d="M18 40 L55 75 L42 160 H12 Z"/>
        <path d="M302 40 L265 75 L278 160 H308 Z"/>
      </g>
      <g transform="translate(148,42)" fill="#fff" stroke="#111" stroke-width="2">
        <rect x="6" y="10" width="24" height="30" rx="2"/>
        <rect x="10" y="2" width="16" height="10"/>
        <circle cx="18" cy="24" r="6"/>
        <path d="M18 40 v10"/>
      </g>
      <g transform="translate(40,155)">
    <rect x="0" y="0" width="53" height="16" rx="3" fill="#111"/>
    <text x="6" y="12" font-family="Segoe UI, Arial, sans-serif" font-size="9" font-weight="700" fill="#fff">ТЕМНО</text>
  </g><g transform="translate(210,28)">
    <rect x="0" y="0" width="61" height="16" rx="3" fill="#111"/>
    <text x="6" y="12" font-family="Segoe UI, Arial, sans-serif" font-size="9" font-weight="700" fill="#fff">ФОНАРЬ</text>
  </g>

<g transform="translate(40,24)">
    <ellipse cx="63.5" cy="16" rx="63.5" ry="15" fill="#fff" stroke="#111" stroke-width="2"/>
    <path d="M44 30 L36 42 L61 32" fill="#fff" stroke="#111" stroke-width="2"/>
    <text x="10" y="20" font-family="Segoe UI, Arial, sans-serif" font-size="10" font-weight="700" fill="#111">Снова темно...</text>
  </g>
</svg>
